<?xml version="1.0" standalone="no"?>
<!DOCTYPE svg PUBLIC "-//W3C//DTD SVG 20010904//EN"
 "http://www.w3.org/TR/2001/REC-SVG-20010904/DTD/svg10.dtd">
<svg version="1.0" xmlns="http://www.w3.org/2000/svg"
 width="1024.000000pt" height="1024.000000pt" viewBox="0 0 1024.000000 1024.000000"
 preserveAspectRatio="xMidYMid meet">
<metadata>
Created by potrace 1.11, written by Peter Selinger 2001-2013
</metadata>
<g transform="translate(0.000000,1024.000000) scale(0.100000,-0.100000)"
fill="#000000" stroke="none">
<path d="M4980 10224 c-153 -39 -246 -100 -352 -233 -10 -11 -18 -24 -18 -27
0 -3 -9 -19 -21 -35 -11 -16 -17 -29 -13 -29 3 0 2 -6 -4 -12 -13 -17 -33 -75
-112 -333 -10 -33 -39 -118 -65 -190 -26 -71 -48 -134 -49 -140 -1 -5 -10 -27
-19 -49 -9 -21 -17 -42 -17 -47 0 -5 -4 -17 -9 -27 -5 -9 -24 -53 -41 -97 -18
-44 -37 -91 -43 -105 -5 -14 -11 -30 -12 -36 -2 -6 -10 -27 -18 -45 -9 -19
-29 -65 -46 -102 -17 -38 -31 -70 -31 -72 0 -15 -279 -578 -320 -645 -5 -8
-57 -100 -116 -205 -59 -104 -115 -201 -124 -215 -9 -14 -43 -68 -75 -120 -74
-119 -127 -203 -227 -354 -43 -65 -78 -122 -78 -126 0 -4 -7 -10 -15 -14 -8
-3 -15 -10 -15 -15 0 -9 -176 -271 -202 -301 -7 -8 -17 -22 -23 -32 -12 -21
-66 -100 -152 -220 -35 -48 -63 -92 -63 -97 0 -5 -3 -11 -7 -13 -9 -3 -11 -7
-98 -135 -33 -48 -62 -90 -65 -93 -6 -6 -103 -151 -110 -165 -12 -24 -66 -100
-73 -103 -4 -2 -5 -8 -1 -13 3 -5 -2 -12 -10 -15 -9 -3 -16 -10 -16 -16 0 -5
-19 -40 -43 -76 -24 -37 -54 -87 -68 -112 -13 -25 -27 -47 -30 -50 -5 -4 -61
-104 -107 -192 -9 -18 -20 -34 -24 -36 -5 -2 -8 -12 -8 -22 0 -10 -4 -20 -8
-22 -6 -2 -82 -149 -87 -168 -1 -3 -11 -25 -22 -50 -30 -65 -56 -123 -59 -135
-1 -5 -10 -28 -19 -50 -21 -48 -85 -224 -90 -245 -1 -8 -10 -41 -20 -72 -9
-32 -16 -59 -15 -60 1 -2 -3 -15 -9 -31 -6 -15 -13 -38 -15 -50 -2 -12 -11
-52 -20 -90 -9 -37 -15 -71 -15 -75 1 -4 0 -9 -1 -12 -5 -13 -19 -98 -26 -155
-3 -22 -7 -51 -9 -65 -19 -108 -27 -599 -12 -735 4 -33 9 -85 12 -115 3 -30 8
-66 10 -80 3 -14 10 -54 15 -90 6 -36 13 -74 15 -85 6 -27 14 -65 20 -95 4
-14 8 -36 11 -50 3 -14 19 -72 35 -130 17 -58 32 -113 34 -123 2 -9 7 -22 10
-27 3 -5 8 -18 10 -27 4 -23 61 -179 80 -218 7 -16 21 -50 31 -75 25 -65 163
-333 214 -415 23 -38 48 -80 55 -92 14 -26 199 -282 223 -309 9 -11 40 -46 67
-79 28 -33 64 -74 80 -91 17 -17 48 -51 71 -75 50 -53 197 -192 250 -236 97
-78 174 -139 194 -153 12 -8 32 -22 44 -31 41 -31 175 -119 181 -119 3 0 11
-5 18 -10 30 -25 89 -60 102 -60 8 0 15 -4 15 -9 0 -5 10 -13 23 -17 12 -4 24
-10 27 -13 7 -8 258 -131 268 -131 5 0 31 -11 60 -25 49 -24 357 -131 397
-138 11 -2 27 -7 35 -10 26 -9 153 -39 189 -43 19 -3 37 -7 41 -9 5 -3 28 -7
51 -10 43 -6 72 -10 115 -19 11 -2 47 -7 80 -11 32 -3 84 -9 114 -12 81 -9
523 -9 612 0 118 12 215 24 252 32 12 2 37 7 56 10 58 8 94 15 110 21 8 3 27
7 41 9 49 7 255 64 372 105 170 58 272 101 452 192 66 33 128 67 138 76 9 8
17 12 17 8 0 -8 82 44 92 59 5 7 8 7 8 0 0 -6 3 -6 8 0 4 6 32 26 62 45 30 19
57 38 58 42 2 5 8 8 14 8 6 0 39 23 74 50 35 28 66 50 69 50 3 0 13 8 24 18
10 9 32 28 50 42 72 56 121 100 231 207 63 62 118 113 123 113 4 0 7 4 7 8 0
4 15 24 33 44 17 19 50 57 72 83 35 41 50 59 83 100 41 51 131 175 140 192 7
12 18 28 24 35 13 14 16 18 70 106 106 173 216 392 280 557 44 113 53 140 57
157 1 4 10 28 21 53 11 25 19 46 18 48 0 1 7 29 16 61 65 221 112 474 133 706
14 161 8 606 -11 720 -3 19 -8 54 -11 78 -12 98 -16 128 -21 141 -3 8 -7 30
-10 50 -6 36 -60 263 -70 291 -3 8 -5 16 -5 18 1 1 -6 18 -14 38 -8 20 -17 46
-19 58 -6 28 -69 199 -100 271 -8 16 -21 48 -31 70 -30 69 -154 318 -185 370
-16 28 -33 59 -38 70 -6 11 -34 61 -64 110 -30 50 -61 101 -69 115 -7 14 -17
27 -20 30 -3 3 -12 16 -19 30 -14 27 -261 399 -325 490 -82 116 -190 273 -200
289 -5 9 -13 18 -16 21 -3 3 -25 34 -49 70 -24 36 -46 67 -50 70 -3 3 -17 23
-30 45 -13 22 -27 42 -31 45 -10 7 -422 630 -439 663 -7 15 -17 27 -22 27 -4
0 -8 4 -8 9 0 5 -42 78 -93 163 -51 84 -100 167 -108 183 -9 17 -25 47 -37 68
-81 140 -136 242 -233 437 -99 200 -144 295 -201 430 -22 52 -44 99 -49 105
-5 5 -9 16 -9 25 0 8 -6 26 -13 40 -7 14 -28 63 -46 110 -18 47 -37 94 -41
105 -5 11 -18 47 -30 80 -13 33 -27 69 -31 80 -10 22 -150 444 -153 460 -1 6
-4 15 -8 20 -3 6 -9 28 -13 50 -4 22 -10 45 -14 50 -3 6 -6 12 -7 15 -2 17
-43 91 -68 125 -42 56 -96 117 -96 108 0 -5 -4 -3 -8 3 -12 20 -134 94 -154
94 -10 0 -18 4 -18 8 0 5 -6 9 -12 10 -7 0 -31 6 -53 12 -61 18 -231 20 -295
4z m-1645 -6415 c103 -48 175 -154 178 -259 1 -33 4 -60 7 -60 3 0 5 -28 6
-63 1 -73 17 -212 24 -212 1 0 3 -9 5 -20 17 -103 67 -249 128 -375 28 -58 55
-109 59 -115 5 -5 32 -45 60 -87 27 -43 54 -78 59 -78 5 0 9 -5 9 -10 0 -22
188 -212 267 -270 26 -19 50 -37 53 -41 9 -10 94 -64 125 -79 17 -8 32 -18 35
-21 21 -28 307 -137 405 -156 46 -8 60 -11 60 -13 0 -6 121 -21 210 -26 135
-7 184 -12 197 -20 7 -5 18 -9 25 -10 20 -3 76 -45 109 -81 45 -50 74 -113 78
-172 2 -29 6 -55 9 -58 4 -3 3 -11 -1 -17 -3 -6 -8 -22 -10 -36 -7 -59 -57
-131 -137 -198 -30 -26 -122 -50 -187 -50 -37 0 -71 -3 -77 -6 -6 -4 -11 -4
-11 1 0 4 -17 8 -38 9 -56 1 -172 14 -214 23 -20 5 -39 7 -42 4 -2 -3 -13 0
-23 5 -10 5 -36 12 -58 15 -65 8 -238 60 -330 98 -16 7 -34 13 -40 14 -5 2
-54 24 -109 49 -128 61 -279 152 -381 229 -86 65 -169 138 -255 225 -100 102
-129 135 -199 227 -17 22 -34 45 -38 50 -17 21 -97 148 -120 188 -61 110 -177
370 -172 390 0 1 -8 25 -19 52 -11 28 -20 53 -21 58 0 4 -3 17 -6 30 -4 13 -7
30 -9 38 -2 8 -6 25 -9 39 -4 14 -9 36 -11 50 -3 14 -7 34 -9 45 -3 11 -8 45
-12 75 -4 30 -10 66 -12 80 -2 20 -13 201 -15 245 0 32 17 106 33 141 23 49
87 124 106 124 7 0 13 4 13 9 0 9 48 30 84 38 11 2 22 5 24 8 2 2 36 2 76 1
49 -2 87 -11 121 -27z"/>
</g>
</svg>
